<svg xmlns="http://www.w3.org/2000/svg" width="3038.557" height="3027.471" viewBox="0 0 3038.557 3027.471">
  <g id="Layer_2" data-name="Layer 2" transform="translate(1705.019 3027.29) rotate(-141)" opacity="0.37">
    <g id="BACKGROUND_2" data-name="BACKGROUND 2" transform="translate(0.248 0.251)">
      <circle id="Ellipse_39" data-name="Ellipse 39" cx="41.945" cy="41.945" r="41.945" transform="translate(1074.934 1064.583) rotate(-50.31)" fill="none" stroke="#505050" stroke-linecap="round" stroke-linejoin="round" stroke-width="4" stroke-dasharray="0 6.24"/>
      <path id="Path_190" data-name="Path 190" d="M654.492,596.443c35.2-4.3,68.74,24.01,74.431,58.176,6.026,36.447-25.234,70.349-58.176,74.43s-71.405-21.321-74.431-58.176C593.459,636.3,619.294,600.788,654.492,596.443Z" transform="translate(471.431 396.459)" fill="none" stroke="#505050" stroke-linecap="round" stroke-linejoin="round" stroke-width="3.91" stroke-dasharray="0 6.24"/>
      <circle id="Ellipse_40" data-name="Ellipse 40" cx="91.574" cy="91.574" r="91.574" transform="translate(1012.318 1103.446) rotate(-64.97)" fill="none" stroke="#505050" stroke-linecap="round" stroke-linejoin="round" stroke-width="3.83" stroke-dasharray="0 6.24"/>
      <circle id="Ellipse_41" data-name="Ellipse 41" cx="116.4" cy="116.4" r="116.4" transform="translate(969.414 1059.169) rotate(-45)" fill="none" stroke="#505050" stroke-linecap="round" stroke-linejoin="round" stroke-width="3.74" stroke-dasharray="0 6.24"/>
      <path id="Path_191" data-name="Path 191" d="M688.848,565.97c75.295-9.2,146.46,48.884,157.289,123.05,11.164,76.831-49.869,148.357-123.05,157.288S573.457,800.522,565.8,723.259C558.4,648.708,613.554,575.166,688.848,565.97Z" transform="translate(428.046 353.03)" fill="none" stroke="#505050" stroke-linecap="round" stroke-linejoin="round" stroke-width="3.66" stroke-dasharray="0 6.24"/>
      <path id="Path_192" data-name="Path 192" d="M700.589,555.823C788.705,545,875.669,611.695,885.465,700.507c9.6,87.3-56.976,174.215-144.659,184.876s-173.471-57.624-184.876-144.66C544.189,652.1,612.329,566.652,700.589,555.823Z" transform="translate(413.305 338.542)" fill="none" stroke="#505050" stroke-linecap="round" stroke-linejoin="round" stroke-width="3.57" stroke-dasharray="0 6.24"/>
      <path id="Path_193" data-name="Path 193" d="M712.25,545.519c102.786-11.357,199.81,62.93,212.463,166.388S861.567,911.885,758.421,924.49C654.794,937.192,560.1,859.328,545.91,758.174S608.264,557,712.25,545.519Z" transform="translate(398.739 324.117)" fill="none" stroke="#505050" stroke-linecap="round" stroke-linejoin="round" stroke-width="3.49" stroke-dasharray="0 6.24"/>
      <path id="Path_194" data-name="Path 194" d="M724.225,535.164C840.553,522.871,949.534,605.849,963.964,723.5,978.37,840.185,892.654,949.43,776.039,963.716c-120.049,14.718-216.329-74.791-238.73-188.189C514.283,658.911,607.105,547.553,724.225,535.164Z" transform="translate(384.122 309.525)" fill="none" stroke="#505050" stroke-linecap="round" stroke-linejoin="round" stroke-width="3.4" stroke-dasharray="0 6.24"/>
      <path id="Path_195" data-name="Path 195" d="M736.635,524.952C865.16,511.939,986.817,605.985,1004.129,734.8c17.479,129.87-82.4,252.272-209.558,267.854-134.287,16.423-235.129-85.764-263.6-210.3-13.661-59.688-13.878-109.221,26.411-159.617C599.539,579.862,668.591,531.843,736.635,524.952Z" transform="translate(368.591 295.223)" fill="none" stroke="#505050" stroke-linecap="round" stroke-linejoin="round" stroke-width="3.32" stroke-dasharray="0 6.24"/>
      <path id="Path_196" data-name="Path 196" d="M750.641,514.98c140.65-15.27,276.448,89.941,295.464,231.167,19.376,143.915-90.733,278.13-231.166,295.466C661.613,1060.556,570.807,941.443,527.565,809.2c-21.321-65.187-30.157-110.109,17.047-168.069C593.376,581.2,673.377,523.359,750.641,514.98Z" transform="translate(351.224 280.873)" fill="none" stroke="#505050" stroke-linecap="round" stroke-linejoin="round" stroke-width="3.23" stroke-dasharray="0 6.24"/>
      <path id="Path_197" data-name="Path 197" d="M767.591,505.054c155.08-18.944,305.141,97.024,323.1,252.776,17.767,154.167-96.159,305.837-252.8,323.1-72.438,7.875-152.3-7.9-205.116-61.177-51.838-52.245-75.079-128.885-106-192.391C492.75,757.518,477,717.9,533.159,651.058,591.575,581.43,674.889,516.387,767.591,505.054Z" transform="translate(331.272 266.189)" fill="none" stroke="#505050" stroke-linecap="round" stroke-linejoin="round" stroke-width="3.15" stroke-dasharray="0 6.24"/>
      <path id="Path_198" data-name="Path 198" d="M789.613,494.908c168.573-20.673,331.1,105.187,350.784,274.408,19.448,167.661-106.387,330.136-274.385,350.712-75.895,9.292-167.252-8.452-221.515-66.579-54.911-58.824-70.613-141.658-113.855-207.589-17.551-26.795-48.476-54-52.077-87.372-4.01-36.423,25.571-71.477,47.179-96.856C591.6,583.817,685.53,507.658,789.613,494.908Z" transform="translate(306.25 251.701)" fill="none" stroke="#505050" stroke-linecap="round" stroke-linejoin="round" stroke-width="3.06" stroke-dasharray="0 6.24"/>
      <path id="Path_199" data-name="Path 199" d="M808.469,484.788c183.555-22.473,355.9,112.462,378.324,296.017S1073.083,1135.744,890.8,1159.129c-81.274,10.445-181.419-8.091-238.322-71.766s-68.452-156.376-121.37-222.956c-19.208-24.226-55.391-50.012-65.571-80.145-13.974-41.249,25.042-83.554,49.364-111.79C588.947,586.47,692.022,499.026,808.469,484.788Z" transform="translate(284.391 237.211)" fill="none" stroke="#505050" stroke-linecap="round" stroke-linejoin="round" stroke-width="2.98" stroke-dasharray="0 6.24"/>
      <path id="Path_200" data-name="Path 200" d="M827.34,474.631c197-24.01,381.9,120.649,405.983,317.6s-121.969,380.82-317.627,405.982c-85.547,10.949-196.88-7.587-255.128-77.264-58.752-70.108-67.228-169.341-129.053-238.322-22.641-25.282-70.613-52.149-81.946-86.1-13.806-41.369,30.66-85.835,54.886-113.543C586.833,588.726,698.527,490.358,827.34,474.631Z" transform="translate(262.496 222.758)" fill="none" stroke="#505050" stroke-linecap="round" stroke-linejoin="round" stroke-width="2.89" stroke-dasharray="0 6.24"/>
      <path id="Path_201" data-name="Path 201" d="M845.023,464.48c210.447-25.691,407.832,128.813,433.594,339.235S1149.8,1211.547,939.382,1237.31c-91.045,11.116-211.863-6.675-272.752-82.45-61.321-76.327-66.411-181.587-136.064-254.5-26.267-27.491-75.031-50.036-92.942-84.274-22.449-42.93,30.444-94.839,55.775-123.363C584.3,590.46,703.99,481.647,845.023,464.48Z" transform="translate(241.811 208.274)" fill="none" stroke="#505050" stroke-linecap="round" stroke-linejoin="round" stroke-width="2.8" stroke-dasharray="0 6.24"/>
      <path id="Path_202" data-name="Path 202" d="M861.854,454.338c223.868-27.347,433.858,136.856,461.2,360.844s-136.952,433.858-360.82,461.253c-94.959,11.6-228.43-6.41-291.239-87.348-64.227-82.762-66.171-193.159-142.475-271.455-27.347-28.091-90.637-55.39-106.364-91.669-19.424-44.826,34.766-95.247,61.417-124.971C581.851,591.314,709.943,472.9,861.854,454.338Z" transform="translate(221.98 193.807)" fill="none" stroke="#505050" stroke-linecap="round" stroke-linejoin="round" stroke-width="2.72" stroke-dasharray="0 6.24"/>
      <path id="Path_203" data-name="Path 203" d="M876.828,444.2c237.458-29.028,459.813,145,488.841,382.453s-145,459.813-382.333,488.841c-100.073,12.221-243.531-6.915-310.183-92.343-30.757-39.4-41.513-90.421-58.584-136.327-21.033-56.423-48.524-108.789-90.3-152.75-31.213-32.822-84.539-54.454-110.133-90.829-32.413-46.051,31.837-104.923,60.217-136.376C579.97,589.817,713.753,464.1,876.828,444.2Z" transform="translate(204.004 179.338)" fill="none" stroke="#505050" stroke-linecap="round" stroke-linejoin="round" stroke-width="2.63" stroke-dasharray="0 6.24"/>
      <path id="Path_204" data-name="Path 204" d="M889.582,433.913c249.871-29.508,485.839,153.447,516.476,404.062S1252.731,1323.814,1002,1354.451c-104.875,12.821-259.09-7.635-329.583-97.24-30.637-38.944-41.081-87.636-56.879-133.351-21.969-63.506-53.4-123.531-98.3-173.783-32.149-36.015-85.907-59.088-113.591-97.192-34.814-48.02,33.086-110.445,62.834-143.315C577.382,587.1,718.92,454.081,889.582,433.913Z" transform="translate(188.225 164.987)" fill="none" stroke="#505050" stroke-linecap="round" stroke-linejoin="round" stroke-width="2.55" stroke-dasharray="0 6.24"/>
      <path id="Path_205" data-name="Path 205" d="M900.216,423.857C1163.1,391.708,1410.737,587.724,1444.3,849.528c33.9,264.252-163.7,511.554-425.67,544.087-113.4,14.094-270.567-9.268-348.431-102.33-35.414-42.306-50.108-93.446-66.675-144.9A562.906,562.906,0,0,0,507.2,965.975c-31.933-39.832-80.385-64.827-111.334-103.819-40.289-50.9,34.406-120.6,65.859-155.416C576.9,579.321,723.839,445.418,900.216,423.857Z" transform="translate(174.59 150.433)" fill="none" stroke="#505050" stroke-linecap="round" stroke-linejoin="round" stroke-width="2.46" stroke-dasharray="0 6.24"/>
      <path id="Path_206" data-name="Path 206" d="M908.352,413.711c276.4-33.782,536.5,172.031,571.723,447.28,35.511,277.675-172.391,538.109-447.28,571.723-122.45,14.934-280.915-12-368.623-106.964-39.664-42.906-61.562-95.055-78.056-150.326a682.414,682.414,0,0,0-92.654-193.591c-29.94-43.218-78.945-72.942-106.916-115.56C349.4,809.681,422.3,738.684,457.015,700.2,575.1,569.247,727.774,435.776,908.352,413.711Z" transform="translate(163.453 135.97)" fill="none" stroke="#505050" stroke-linecap="round" stroke-linejoin="round" stroke-width="2.38" stroke-dasharray="0 6.24"/>
      <path id="Path_207" data-name="Path 207" d="M914.293,403.563c290.135-35.487,562.215,180.074,599.358,468.888,37.5,291.72-180.842,563.968-468.792,599.358-132.414,16.279-290.519-15.582-389.416-111.382s-113.086-244.9-179.378-362.189c-26.867-47.515-75.079-85.667-98.44-133.543-30.565-62.786,36.519-131.67,74.743-174.216C572.416,556.89,731.146,425.989,914.293,403.563Z" transform="translate(154.487 121.483)" fill="none" stroke="#505050" stroke-linecap="round" stroke-linejoin="round" stroke-width="2.29" stroke-dasharray="0 6.24"/>
      <path id="Path_208" data-name="Path 208" d="M918.263,393.484c301.612-37.84,590.306,189.678,626.969,490.5s-187.685,591.915-490.5,626.97c-143.746,16.663-299.426-19.9-410.568-115.679-116.064-100.122-131.43-247.806-189.8-379.524-22.737-51.5-63.65-99.041-83.194-151.862-25.835-69.628,33.614-137.721,76.832-185.764C570.025,542.344,732.835,416.749,918.263,393.484Z" transform="translate(147.515 106.952)" fill="none" stroke="#505050" stroke-linecap="round" stroke-linejoin="round" stroke-width="2.21" stroke-dasharray="0 6.24"/>
      <path id="Path_209" data-name="Path 209" d="M920.687,383.236c316.258-38.416,617.053,195.008,654.6,512.13,37.36,315.345-196.3,616.092-512.106,654.6-153.039,18.656-309.391-25.738-431.577-120.049-56.591-43.674-105.98-92.174-131.07-160.482-28.4-77.263-36.927-159.546-69.316-235.465-22.4-52.509-48.74-112.39-64.61-167.516-22.545-78.3,27.131-147.373,77.12-202.739C566.878,527.319,734.179,405.949,920.687,383.236Z" transform="translate(142.09 92.566)" fill="none" stroke="#505050" stroke-linecap="round" stroke-linejoin="round" stroke-width="2.12" stroke-dasharray="0 6.24"/>
      <path id="Path_210" data-name="Path 210" d="M922.184,373.093c329.728-40.169,643.032,203.171,682.216,533.739,39.016,328.935-204.4,642.1-533.715,682.263-164.011,20-318.347-31.069-452.37-124.443-61.993-43.218-125.307-89.581-153.111-162.619-30.469-79.977-26.075-169.078-56.9-249.7C385.8,993.556,369.885,923.3,360.281,860.4c-12.677-83.266,24.538-151.959,79.04-212.223C562.612,511.918,736.708,395.758,922.184,373.093Z" transform="translate(137.568 78.075)" fill="none" stroke="#505050" stroke-linecap="round" stroke-linejoin="round" stroke-width="2.04" stroke-dasharray="0 6.24"/>
      <path id="Path_211" data-name="Path 211" d="M922.863,362.947c343.125-41.8,669.083,211.287,709.924,555.324,40.624,342.213-212.583,668.122-555.3,709.923-174.576,21.273-327.518-36.471-472.706-129-66.723-42.522-145.812-86.771-176.761-164.131-14.838-37.071-13.061-77.48-15.1-116.616-2.641-51.022-9.6-99.593-26.411-147.877-22.785-65.475-24.01-131.382-29.868-200.026C348.788,777.573,371.6,702.206,434.5,632.194,556.737,496.346,739.692,385.252,922.863,362.947Z" transform="translate(133.863 63.61)" fill="none" stroke="#505050" stroke-linecap="round" stroke-linejoin="round" stroke-width="1.95" stroke-dasharray="0 6.24"/>
      <path id="Path_212" data-name="Path 212" d="M927.678,352.79c356.546-43.434,695.061,219.546,737.534,576.957,42.281,355.634-220.746,694.125-576.933,737.535-184.731,22.521-337.1-41.489-492.441-133.711-70.781-42.018-167.733-83.891-199.954-165.932-16.183-41.2-8.307-86.82-6.891-129.942,1.681-51.236-2.4-100.289-18.151-149.2-14.646-45.619-25.426-84.755-19.712-132.847a667.675,667.675,0,0,0,5.09-84.034c-.528-96.592,9.724-180.626,77.168-255.273C555.141,481.675,746.763,374.831,927.678,352.79Z" transform="translate(126.047 49.133)" fill="none" stroke="#505050" stroke-linecap="round" stroke-linejoin="round" stroke-width="1.87" stroke-dasharray="0 6.24"/>
      <path id="Path_213" data-name="Path 213" d="M937.463,342.662c371.528-45.259,719.911,226.869,765.193,598.566s-228.094,718.95-598.541,765.194a687.093,687.093,0,0,1-271.984-21.1c-88.668-25.451-160.289-72.534-239.426-117.648-71.333-40.6-186.172-79.833-220.891-162.355-19.208-46-3.89-98.44,1.32-145.859,5.738-52.438,4.8-102.786-10.708-153.423-13.4-43.866-27.972-83.074-19.472-129.653,5.978-32.942,16.327-62.738,18.175-96.664,5.522-101.849,3.265-197.121,75.415-277.77C556.618,467.754,759.286,364.367,937.463,342.662Z" transform="translate(113.237 34.627)" fill="none" stroke="#505050" stroke-linecap="round" stroke-linejoin="round" stroke-width="1.78" stroke-dasharray="0 6.24"/>
      <path id="Path_214" data-name="Path 214" d="M945.305,332.506c384.95-46.891,745.937,235.057,792.853,620.174s-235.033,745.938-620.175,792.853a714.646,714.646,0,0,1-281.827-21.9c-91.958-26.267-165.668-76.015-247.878-121.946-76.087-42.473-216.665-81.177-245.332-175.488-12.965-42.593,5.666-94.022,13.709-135.968,10.853-56.759,14.406-110.9-2.4-166.844-13.446-44.73-29.052-86.075-17.623-133.543,8.379-34.862,23.266-63.482,26.939-99.953,10.684-105.643-3.817-215.32,72.726-300.363,63.266-70.277,149.869-116.808,231.335-162.475C754.4,378.437,846.072,344.607,945.305,332.506Z" transform="translate(102.37 20.15)" fill="none" stroke="#505050" stroke-linecap="round" stroke-linejoin="round" stroke-width="1.7" stroke-dasharray="0 6.24"/>
      <path id="Path_215" data-name="Path 215" d="M956.526,322.361c398.419-48.524,771.941,243.1,820.489,641.783s-243.1,771.941-641.807,820.489a740.04,740.04,0,0,1-286.053-21.081c-97.744-27.083-174.36-79.521-261.516-128.093-78.416-43.722-227.349-78.9-259.763-174-16.3-47.828,8.74-104.851,20.216-151,14.238-57.359,21.033-113.735,2.881-170.086-13.493-41.969-29.676-85.619-18.944-130.541,9.484-39.664,31.693-70.565,37.119-112.15,14.118-108.308-11.044-229.078,68.02-317.41C501.131,508.965,591.648,463.731,674.218,417.3,761.9,367.859,856.212,334.557,956.526,322.361Z" transform="translate(88.148 5.685)" fill="none" stroke="#505050" stroke-linecap="round" stroke-linejoin="round" stroke-width="1.61" stroke-dasharray="0 6.24"/>
      <path id="Path_216" data-name="Path 216" d="M969.366,312.189c411.817-50.2,797.92,251.407,848.148,663.392s-251.407,797.967-663.392,848.2a761.591,761.591,0,0,1-307.11-25.066c-96.039-28.379-172.343-79.929-257.554-129.653-79.016-46.1-242.115-79.448-273.544-178.753-15.583-49.269,11.213-104.3,25.547-150.566,18.7-60.457,29.532-121.706,8.932-182.475-14.406-42.473-35.511-88.6-20.7-134.311,11.381-35.15,35.2-62.714,43-99.977,24.01-114.431-20.913-252.367,63.866-347.927,64.25-72.39,158.465-117.072,241.107-164.684a770.979,770.979,0,0,1,291.7-98.176Z" transform="translate(72.282 -8.825)" fill="none" stroke="#505050" stroke-linecap="round" stroke-linejoin="round" stroke-width="1.52" stroke-dasharray="0 6.24"/>
      <path id="Path_217" data-name="Path 217" d="M979.232,302.062c425.311-51.933,823.874,259.667,875.784,685s-259.667,823.874-685,875.784a790.4,790.4,0,0,1-311.36-24.2c-101.73-28.812-181.755-82.906-270.927-136.448-84.707-50.852-251-79.808-281.9-189.462-14.406-51.285,15.27-106.868,31.4-154.455,20.384-60.024,33.614-123.531,9.1-184.252-16.111-40.072-40.817-87.515-26.075-131.838,14.142-42.137,45.619-67.876,54.814-114.071,22.785-115.248-27.491-257.746,54-355.634,63.29-76.015,164.948-120.337,249.1-169.2a791.793,791.793,0,0,1,301.06-101.226Z" transform="translate(59.391 -23.285)" fill="none" stroke="#505050" stroke-linecap="round" stroke-linejoin="round" stroke-width="1.44" stroke-dasharray="0 6.24"/>
      <path id="Path_218" data-name="Path 218" d="M985.479,291.914c438.828-53.638,849.8,267.854,903.419,706.634s-267.853,849.8-706.634,903.419a813.1,813.1,0,0,1-315.442-23.337c-107.252-29.676-191.839-84.683-284.925-142.523-87.3-54.335-245.189-73.662-280.723-186.173-18.464-58.44,11.525-119.9,30.541-174.095,22.281-63.531,31.957-122.979,4.634-185.476-16.639-38.1-46.507-87.612-31.717-131.286,13.253-39.112,50.733-62.282,62.714-103.627,35.847-123.747-37.527-279.187,48.6-388.1C478.1,488.722,590.373,446.081,675.248,396.333A808.63,808.63,0,0,1,985.48,291.914Z" transform="translate(50.142 -37.771)" fill="none" stroke="#505050" stroke-linecap="round" stroke-linejoin="round" stroke-width="1.35" stroke-dasharray="0 6.24"/>
      <path id="Path_219" data-name="Path 219" d="M994.992,281.751c452.177-55.223,875.807,276.113,931.077,728.267s-276.089,875.807-728.338,931.078a837.93,837.93,0,0,1-336.714-27.4c-105.4-30.948-189.678-85.739-281.371-143.7-89.125-56.4-244.42-66.435-279.5-184.467-18.9-63.6,11.813-137.745,31.645-196.881,21.969-65.475,25.162-120.05-4.8-182.763-19.808-41.465-57.624-98.272-31.813-145.188,21.2-38.583,57.888-54.91,70.2-101.178,33.734-126.7-46.219-287.926,39.088-399.908,61.705-81.033,184.371-120.049,270.711-170.638A834.125,834.125,0,0,1,994.992,281.751Z" transform="translate(37.629 -52.242)" fill="none" stroke="#505050" stroke-linecap="round" stroke-linejoin="round" stroke-width="1.27" stroke-dasharray="0 6.24"/>
      <path id="Path_220" data-name="Path 220" d="M1009.782,271.623c465.575-56.927,901.858,284.253,958.737,749.828s-284.325,901.858-749.9,958.737a862.73,862.73,0,0,1-340.94-26.531c-111.118-31.74-198.3-89.748-294.745-149.821-91.669-57.072-250.855-57.023-276.5-187.132-13.878-70.469,12-144.948,29.988-212.08,18.824-70.229,16.807-118.753-16.207-183.435-20.576-40.36-64.538-100.842-38.416-148.093,19.736-35.751,62.426-49.461,78.728-89.365,54.55-133.471-53.422-311.144,36.759-433.4,33.83-45.859,84.467-68.788,135.3-90.853,52.245-22.713,99.137-48.74,148.213-77.384a861.017,861.017,0,0,1,328.983-110.469Z" transform="translate(19.813 -66.7)" fill="none" stroke="#505050" stroke-linecap="round" stroke-linejoin="round" stroke-width="1.18" stroke-dasharray="0 6.24"/>
      <path id="Path_221" data-name="Path 221" d="M1026.38,261.441c478.973-58.512,927.837,292.512,986.372,771.509s-292.608,927.837-771.533,986.373a885.006,885.006,0,0,1-362.068-30.637c-109.7-33.133-195.824-91.094-291.335-150.734-89.557-55.918-234.432-43.746-266.8-167.877-18.968-72.87,2.833-153.279,17.647-224.9,16.807-81.489,13.3-135.967-26.171-209.2-21.225-39.376-70.373-103.65-46.219-151.478,20.865-41.3,73.4-51.309,92.774-96.712,28.02-65.739,14.406-153.855,9.364-222.4C363.2,693.5,346.325,602.4,390.672,539.331c34.262-48.716,92.294-68.908,145.572-88.836,56.567-21.2,104.419-48.212,156.52-78.176a886.442,886.442,0,0,1,333.617-110.877Z" transform="translate(0.214 -81.2)" fill="none" stroke="#505050" stroke-linecap="round" stroke-linejoin="round" stroke-width="1.1" stroke-dasharray="0 6.24"/>
      <path id="Path_222" data-name="Path 222" d="M1044.5,251.162c491.554-59.016,953.839,300.6,1014.008,793.141s-300.6,953.84-793.141,1014.01a911.722,911.722,0,0,1-360.508-28.068c-118.128-33.806-208.646-94.312-310.879-158.466-97.6-61.153-238.61-28.572-261.707-177.265-12.269-79.233,7.2-160.866,17.887-238.874,11.164-80.529-7.587-135.776-46.555-205.308-22.305-39.76-76.543-108.765-53.206-158.177,20.576-43.554,80.937-53.494,104.563-98.44,33.374-63.578,22.713-146.148,16.807-214.7-6.483-75.727-32.966-183.747,13.446-251.527,33.494-48.884,94.5-66.8,147.949-83.65,58.512-18.464,106.436-42.329,159.017-73.4A909.808,909.808,0,0,1,1044.5,251.162Z" transform="translate(-20.904 -95.555)" fill="none" stroke="#505050" stroke-linecap="round" stroke-linejoin="round" stroke-width="1.01" stroke-dasharray="0 6.24"/>
      <path id="Path_223" data-name="Path 223" d="M1063.468,241.109c504.591-61.8,978.473,311.336,1041.667,814.75,63.506,505.912-311.359,979.6-814.774,1041.667a933.6,933.6,0,0,1-381.589-32.149c-115.824-34.742-207.061-95.823-307.927-159.425-95.271-60.024-221.419-10.492-250.279-155.632-18.68-93.975,5.282-191.095,11.357-285.045,5.138-79.5-29.412-133.351-68.452-199.883-25.859-44.081-85.019-117.192-57.24-171.094,21.033-41.033,83.41-53.9,112.486-91.045,45.619-58.248,34.238-145.884,27.755-214.144-7.491-78.584-42.5-201.131,4.61-272.9,34.334-52.341,102.09-66.363,158.465-81.153,63.218-16.639,111.141-41.465,167.325-74.19a940.076,940.076,0,0,1,356.594-119.761Z" transform="translate(-42.9 -110.137)" fill="none" stroke="#505050" stroke-linecap="round" stroke-linejoin="round" stroke-width="0.93" stroke-dasharray="0 6.24"/>
      <path id="Path_224" data-name="Path 224" d="M1083.665,230.966c517.916-63.578,1004.356,319.787,1069.279,836.383,65.283,519.333-319.547,1005.388-836.383,1069.279a958,958,0,0,1-380.052-29.58c-123.723-35.438-220.891-99.064-327.71-167.156-46.723-29.821-86.2-22.234-137.865-30.4-70.4-11.141-98.441-73.014-106.244-138.249-12-99.521,10.708-198.3,9.076-297.722-1.272-77.408-51.381-132.966-90.9-194.623-27.755-43.218-95.511-129.942-60.745-185.741,25.715-41.273,88.548-52.126,122.786-86.172,56.9-56.591,44.466-147.949,36.4-220.218-9.028-80.1-49.581-207.325-3.409-281.948,33.133-53.47,104.083-64.347,160.506-76.448,69.917-15.006,117.984-39.16,179.066-74.647a967.885,967.885,0,0,1,366.2-122.762Z" transform="translate(-66.099 -124.628)" fill="none" stroke="#505050" stroke-linecap="round" stroke-linejoin="round" stroke-width="0.84" stroke-dasharray="0 6.24"/>
      <path id="Path_225" data-name="Path 225" d="M1103.87,220.808c531.53-65.187,1030.454,327.926,1097.01,857.92,66.891,532.754-328.262,1032.039-858.016,1096.913-268.911,32.918-506.752-51.141-725.962-201.682-45.907-31.525-80.673-20.432-132.054-23.866-71.189-4.8-94.767-71.332-102.834-133.831-13.614-105.643,8.548-211.142,2.905-316.69-4.562-85.139-67.4-141.13-112.846-206.773-30.4-43.6-99.281-133.975-68.572-193.207,25.162-48.4,101.466-58.1,141.2-92.078,61.2-52.269,51.6-137.288,43.218-209.606-9.6-84.251-59.689-224.78-13.133-304.061,33.11-56.447,114.191-63.338,171.43-73.3,70.013-12.2,117.216-35.655,177.673-71.213A990.885,990.885,0,0,1,1103.87,220.808Z" transform="translate(-89.4 -139.104)" fill="none" stroke="#505050" stroke-linecap="round" stroke-linejoin="round" stroke-width="0.76" stroke-dasharray="0 6.24"/>
      <path id="Path_226" data-name="Path 226" d="M1123.348,210.664C1668.2,143.82,2179.782,546.8,2247.9,1090.289c68.5,546.176-336.474,1058.018-879.649,1124.549-273.448,33.469-522.478-50.421-744.305-206.892-45.619-32.15-74.791-21.178-125.884-18.92-75.391,3.361-96.3-75.7-102.882-138.129-11.6-110.013,9.6-220.6.312-330.472-7.467-89.388-86.435-145.763-135.344-212.271-34.622-47.107-107.708-146.148-69.629-209.63,28.812-48.02,106.8-55.871,149.966-87.347,70.373-51.286,62.545-136.569,52.534-214.385-7.083-54.982-18.079-109.365-25.307-164.323-5.714-43.362-17.383-106,5.162-147.277,31.717-58.032,115.247-62.426,172.487-70.4,75.415-10.42,124.2-34.5,188.693-72.462a1015.115,1015.115,0,0,1,389.3-131.67Z" transform="translate(-111.784 -153.57)" fill="none" stroke="#505050" stroke-linecap="round" stroke-linejoin="round" stroke-width="0.67" stroke-dasharray="0 6.24"/>
      <path id="Path_227" data-name="Path 227" d="M1141.638,200.634c559.118-69.629,1082.316,344.373,1152.16,901.257,70.181,559.574-344.709,1083.948-901.354,1152.161-277.554,34-538.685-49.365-762.625-212.079-49.82-36.183-73.47-20.024-128.6-15.51-76.423,6.243-90.253-86.436-95.391-144.659-10.372-117.648,15.51-239.21-3.721-355.8-13.83-83.746-107.8-138.92-155.32-200.89-37.527-48.932-112.846-159.017-68.716-224.66,33.134-49.436,113.567-57.287,160.866-88.452,71.813-47.419,69.484-124.851,60.025-202.5-7.443-61.057-21.057-121.154-29.676-182.019-6.435-45.619-18.968-104.635,2.4-147.9C402.9,416.507,492.34,416,552.6,409.016c78.68-9.148,127.924-37.311,194.84-76.3a1040.825,1040.825,0,0,1,394.194-132.078Z" transform="translate(-133.076 -168.174)" fill="none" stroke="#505050" stroke-linecap="round" stroke-linejoin="round" stroke-width="0.59" stroke-dasharray="0 6.24"/>
      <path id="Path_228" data-name="Path 228" d="M1157.064,190.477c572.851-71.237,1108.031,352.393,1179.772,922.915,72.029,573.523-353.186,1109.76-922.891,1179.772C1132.6,2327.738,858.957,2244.833,633.024,2076c-49.268-36.831-71.6-25.355-126.892-16.375-80.769,13.133-91.814-91.6-95.487-149.342-7.635-119.5,18.368-245.165-4.466-363.173-16.807-87.083-125.6-139.449-175.752-203.243-41.129-52.294-106.556-162.211-66.387-233.135,30.084-53.062,108.741-63.77,158.081-90.733C399.7,977.615,411.99,910.748,402.89,827.146c-6.675-61.417-20.624-121.826-30.949-182.691-8.548-50.421-25.571-119.545-3-168.525,31.4-68.116,128.765-65.235,191.719-71.741,79.064-8.139,126.268-39.712,192.943-78.464A1066.855,1066.855,0,0,1,1157.064,190.477Z" transform="translate(-151.478 -182.65)" fill="none" stroke="#505050" stroke-linecap="round" stroke-linejoin="round" stroke-width="0.5" stroke-dasharray="0 6.24"/>
    </g>
  </g>
</svg>
